<svg id="Layer_1" data-name="Layer 1" xmlns="http://www.w3.org/2000/svg" xmlns:xlink="http://www.w3.org/1999/xlink" viewBox="0 0 967 690"><defs><style>.cls-1,.cls-2{fill:none;}.cls-14,.cls-2{clip-path:url(#clip-path);}.cls-3{clip-path:url(#clip-path-2);}.cls-4{fill:#528ff5;}.cls-5{fill:url(#linear-gradient);}.cls-6{fill:url(#linear-gradient-2);}.cls-7{fill:#2d3079;}.cls-21,.cls-7{fill-opacity:0.1;}.cls-8{fill:#f8c045;}.cls-9{fill:url(#linear-gradient-3);}.cls-10{fill:#eb493b;}.cls-11{fill:url(#linear-gradient-4);}.cls-12{fill:url(#linear-gradient-5);}.cls-13,.cls-35{fill:#3e2723;}.cls-13,.cls-19,.cls-20{fill-opacity:0.05;}.cls-15{fill:#eee;}.cls-16{fill:#547dbf;}.cls-17{clip-path:url(#clip-path-6);}.cls-18,.cls-23,.cls-29{fill:#fff;}.cls-18{fill-opacity:0.4;}.cls-19,.cls-21{fill:#262626;}.cls-20{fill:#be3a26;}.cls-22{fill:url(#linear-gradient-6);}.cls-23{fill-opacity:0.2;}.cls-24{fill:url(#radial-gradient);}.cls-25{fill:#ffc107;}.cls-26{fill:#0f9d58;}.cls-27{fill:#bf360c;}.cls-27,.cls-28,.cls-29,.cls-34,.cls-35{opacity:0.2;isolation:isolate;}.cls-28{fill:#263238;}.cls-30{fill:url(#radial-gradient-2);}.cls-31{fill:url(#radial-gradient-3);}.cls-32{fill:#4285f4;}.cls-33{fill:#db4437;}.cls-34{fill:#1a237e;}.cls-36{fill:url(#radial-gradient-4);}.cls-37{fill:#767676;}</style><clipPath id="clip-path"><path class="cls-1" d="M552.58,95H281.43L525,236,388.66,471.89h88.85c12.26,0,24.51-6.13,30.64-18.39l114.9-200.68a36.1,36.1,0,0,0,0-35.23Z"/></clipPath><clipPath id="clip-path-2"><path class="cls-1" d="M623.05,217.59,552.58,93.5,508.15,16.9C502,7.71,491.3.05,477.51.05H247.72c-12.25,0-24.51,6.13-30.63,18.39L146.62,142.52l-44.43,76.6a36,36,0,0,0,0,35.23L217.09,453.5c6.12,10.73,18.38,18.39,30.63,18.39H477.51c12.26,0,24.51-6.13,30.64-18.39l114.9-200.68C629.17,242.1,629.17,229.84,623.05,217.59Zm-262,88.85c-38.3,0-70.47-32.17-70.47-70.47s32.17-70.47,70.47-70.47,70.47,32.17,70.47,70.47A70.28,70.28,0,0,1,361.09,306.44Z"/></clipPath><linearGradient id="linear-gradient" x1="196.08" y1="460.99" x2="313.35" y2="528.85" gradientTransform="matrix(1, 0, 0, -1, -1.2, 687)" gradientUnits="userSpaceOnUse"><stop offset="0" stop-color="#2d3079" stop-opacity="0.2"/><stop offset="0.66" stop-color="#2d3079" stop-opacity="0"/></linearGradient><linearGradient id="linear-gradient-2" x1="136.78" y1="534.83" x2="205.99" y2="465.62" gradientTransform="matrix(1, 0, 0, -1, -1.2, 687)" gradientUnits="userSpaceOnUse"><stop offset="0" stop-color="#2d3079" stop-opacity="0.2"/><stop offset="1" stop-color="#2d3079" stop-opacity="0.04"/></linearGradient><linearGradient id="linear-gradient-3" x1="440.36" y1="300.03" x2="324.15" y2="368.07" gradientTransform="matrix(1, 0, 0, -1, -1.2, 687)" gradientUnits="userSpaceOnUse"><stop offset="0" stop-color="#be3a26" stop-opacity="0.15"/><stop offset="0.66" stop-color="#be3a26" stop-opacity="0"/></linearGradient><linearGradient id="linear-gradient-4" x1="455.73" y1="588.84" x2="455.73" y2="454.06" gradientTransform="matrix(1, 0, 0, -1, -1.2, 687)" gradientUnits="userSpaceOnUse"><stop offset="0" stop-color="#a52822" stop-opacity="0.2"/><stop offset="0.66" stop-color="#a52822" stop-opacity="0"/></linearGradient><linearGradient id="linear-gradient-5" x1="366.47" y1="455.27" x2="539.74" y2="282" gradientTransform="matrix(1, 0, 0, -1, -1.2, 687)" gradientUnits="userSpaceOnUse"><stop offset="0" stop-color="#3e2723" stop-opacity="0.15"/><stop offset="1" stop-color="#3e2723" stop-opacity="0"/></linearGradient><clipPath id="clip-path-6"><path class="cls-1" d="M281.43,376.91,146.62,142.52l-44.43,76.6a36,36,0,0,0,0,35.23L217.09,453.5c6.12,10.73,18.38,18.39,30.63,18.39H390.19L526.53,236Z"/></clipPath><linearGradient id="linear-gradient-6" x1="363.82" y1="309.81" x2="363.82" y2="216.06" gradientTransform="matrix(1, 0, 0, -1, -1.2, 687)" gradientUnits="userSpaceOnUse"><stop offset="0" stop-color="#3e2723" stop-opacity="0.15"/><stop offset="0.04" stop-color="#462823" stop-opacity="0.14"/><stop offset="0.25" stop-color="#712e24" stop-opacity="0.11"/><stop offset="0.46" stop-color="#923325" stop-opacity="0.08"/><stop offset="0.66" stop-color="#aa3726" stop-opacity="0.05"/><stop offset="0.85" stop-color="#b93926" stop-opacity="0.02"/><stop offset="1" stop-color="#be3a26" stop-opacity="0"/></linearGradient><radialGradient id="radial-gradient" cx="248.7" cy="12078.87" r="529.55" gradientTransform="matrix(0.01, 0, 0, -0.01, 2389.26, -4617.52)" gradientUnits="userSpaceOnUse"><stop offset="0" stop-color="#fff" stop-opacity="0.1"/><stop offset="1" stop-color="#fff" stop-opacity="0"/></radialGradient><radialGradient id="radial-gradient-2" cx="788.61" cy="-9172.54" r="162.89" gradientTransform="matrix(1, 0, 0, -1, 0, -8796)" gradientUnits="userSpaceOnUse"><stop offset="0" stop-color="#bf360c" stop-opacity="0.2"/><stop offset="1" stop-color="#bf360c" stop-opacity="0.02"/></radialGradient><radialGradient id="radial-gradient-3" cx="788.15" cy="-9173.57" r="164.21" gradientTransform="matrix(1, 0, 0, -1, 0, -8796)" gradientUnits="userSpaceOnUse"><stop offset="0" stop-color="#263238" stop-opacity="0.2"/><stop offset="1" stop-color="#263238" stop-opacity="0.02"/></radialGradient><radialGradient id="radial-gradient-4" cx="566.8" cy="-8799.49" r="494.4" gradientTransform="matrix(1, 0, 0, -1, 0, -8796)" xlink:href="#radial-gradient"/></defs><title>hmm</title><g class="cls-3"><g id="g288"><path id="path243" class="cls-4" d="M281.43,95H552.58L508.15,18.44C502,7.71,491.3.05,477.51.05H247.72c-12.25,0-24.51,6.13-30.63,18.39L146.62,142.52,281.43,376.91Z"/><path id="path250" class="cls-5" d="M281.43,95H552.58L508.15,18.44C502,7.71,491.3.05,477.51.05H247.72c-12.25,0-24.51,6.13-30.63,18.39L146.62,142.52,281.43,376.91Z"/><polygon id="polygon257" class="cls-6" points="203.3 242.1 146.62 142.52 215.55 209.93 203.3 242.1"/><polygon id="polygon259" class="cls-7" points="146.62 142.52 203.3 242.1 206.36 240.57 154.28 150.18 146.62 142.52"/><path id="path261" class="cls-8" d="M281.43,376.91,146.62,142.52l-44.43,76.6a36,36,0,0,0,0,35.23L217.09,453.5c6.12,10.73,18.38,18.39,30.63,18.39H390.19L526.53,236Z"/><path id="path268" class="cls-9" d="M281.43,376.91,146.62,142.52l-44.43,76.6a36,36,0,0,0,0,35.23L217.09,453.5c6.12,10.73,18.38,18.39,30.63,18.39H390.19L526.53,236Z"/><path id="path270" class="cls-10" d="M552.58,95H281.43L525,236,388.66,471.89h88.85c12.26,0,24.51-6.13,30.64-18.39l114.9-200.68a36.1,36.1,0,0,0,0-35.23Z"/><path id="path277" class="cls-11" d="M552.58,95H281.43L525,236,388.66,471.89h88.85c12.26,0,24.51-6.13,30.64-18.39l114.9-200.68a36.1,36.1,0,0,0,0-35.23Z"/><polygon id="polygon284" class="cls-12" points="627.64 471.89 390.19 471.89 443.81 376.91 443.81 95.03 627.64 278.86 627.64 471.89"/><rect id="rect286" class="cls-13" x="442.28" y="95.03" width="114.89" height="3.06"/></g></g><g class="cls-3"><g id="g304"><g class="cls-14"><g id="g298"><path id="path296" class="cls-15" d="M443.81,95,525,236,443.81,376.91H281.43L200.23,236,281.43,95H443.81"/></g><g id="g302"><path id="path300" class="cls-16" d="M281.43,95H552.58L508.15,18.44C502,7.71,491.3.05,477.51.05H247.72c-12.25,0-24.51,6.13-30.63,18.39L146.62,142.52,281.43,376.91Z"/></g></g></g><g class="cls-3"><g id="g316"><g class="cls-17"><g id="g314"><path id="path312" class="cls-15" d="M443.81,95,525,236,443.81,376.91H281.43L200.23,236,281.43,95H443.81"/></g></g></g><g class="cls-3"><g id="g328"><path id="path318" class="cls-15" d="M443.81,95,525,236,443.81,376.91H281.43L200.23,236,281.43,95H443.81"/><polygon id="polygon320" class="cls-18" points="526.53 235.97 443.81 95.03 281.43 95.03 200.23 235.97 201.77 235.97 281.43 98.1 443.81 98.1 523.47 235.97 526.53 235.97"/><polygon id="polygon322" class="cls-19" points="281.43 373.84 201.77 235.97 200.23 235.97 281.43 376.91 443.81 376.91 526.53 235.97 523.47 235.97 443.81 373.84 281.43 373.84"/><polygon id="polygon324" class="cls-20" points="281.43 376.91 200.23 235.97 200.23 239.03 281.43 379.97 443.81 379.97 526.53 239.03 526.53 235.97 443.81 376.91 281.43 376.91"/><path id="path326" class="cls-21" d="M361.09,162.44c-38.3,0-70.47,32.17-70.47,70.47H431.56C433.09,194.61,400.92,162.44,361.09,162.44ZM290.62,239c0,38.3,32.17,70.47,70.47,70.47s70.47-32.17,70.47-70.47Z"/></g></g><g class="cls-3"><polygon id="polygon345" class="cls-22" points="390.19 471.89 443.81 376.91 281.43 376.91 376.41 471.89 390.19 471.89"/></g><g class="cls-3"><g id="g349"><path id="path347" class="cls-23" d="M146.62,145.59,217.09,21.5c6.12-10.72,18.38-18.38,30.63-18.38H477.51c12.26,0,24.51,6.12,30.64,18.38l44.43,76.6,70.47,124.08c3.06,4.6,4.59,10.73,4.59,16.85,0-6.12-1.53-13.78-4.59-18.38L552.58,96.56,508.15,20C502,7.71,491.3.05,477.51.05H247.72c-12.25,0-24.51,6.13-30.63,18.39L146.62,142.52l-44.43,76.6a40.83,40.83,0,0,0-4.6,18.38c0-6.13,1.54-10.72,4.6-16.85Zm101.1,323.23c-12.25,0-24.51-6.12-30.63-18.38L146.62,326.35l-44.43-76.59c-3.06-4.6-4.6-10.73-4.6-16.85,0,6.12,1.54,13.78,4.6,18.38l44.43,76.6L217.09,453.5c6.12,10.73,18.38,18.39,30.63,18.39H390.19l1.54-3.07ZM627.64,234.44c0,6.13-1.53,10.72-4.59,16.85L552.58,375.38,508.15,452c-6.13,10.73-18.38,18.39-30.64,18.39H391.73l-1.54,3.06h87.32c12.26,0,24.51-6.13,30.64-18.38l44.43-76.6,70.47-124.09A47.17,47.17,0,0,0,627.64,234.44Z"/></g></g><path id="path356" class="cls-24" d="M623.05,217.59,552.58,93.5,508.15,16.9C502,7.71,491.3.05,477.51.05H247.72c-12.25,0-24.51,6.13-30.63,18.39L146.62,142.52l-44.43,76.6a36,36,0,0,0,0,35.23L217.09,453.5c6.12,10.73,18.38,18.39,30.63,18.39H477.51c12.26,0,24.51-6.13,30.64-18.39l114.9-200.68C629.17,242.1,629.17,229.84,623.05,217.59Zm-262,88.85c-38.3,0-70.47-32.17-70.47-70.47s32.17-70.47,70.47-70.47,70.47,32.17,70.47,70.47A70.28,70.28,0,0,1,361.09,306.44Z"/><rect id="rect358" class="cls-1" x="97.59" y="-47.44" width="530.05" height="565.28"/></g></g><g id="_Group_" data-name="&lt;Group&gt;"><g id="_Group_2" data-name="&lt;Group&gt;"><path class="cls-1" d="M858.84,213.36,735.56-.08H570.7L706.86,235.44,570.7,471H735.93L859.21,257.52A44.08,44.08,0,0,0,858.84,213.36Z"/><polygon id="_Path_" data-name="&lt;Path&gt;" class="cls-25" points="788.18 376.01 749.17 308.3 654.97 470.95 735.56 470.95 789.29 377.85 788.18 376.01"/><path class="cls-1" d="M858.84,213.36,735.56-.08H570.7L706.86,235.44,570.7,471H735.93L859.21,257.52A44.08,44.08,0,0,0,858.84,213.36Z"/><polygon class="cls-26" points="706.86 235.44 749.17 308.3 654.97 470.95 570.33 470.95 706.86 235.44"/><path class="cls-1" d="M858.84,213.36,735.56-.08H570.7L706.86,235.44,570.7,471H735.93L859.21,257.52A44.08,44.08,0,0,0,858.84,213.36Z"/><polygon class="cls-27" points="735.56 467.27 657.18 467.27 654.97 470.95 735.56 470.95 789.29 377.85 788.18 376.01 735.56 467.27"/><path class="cls-1" d="M858.84,213.36,735.56-.08H570.7L706.86,235.44,570.7,471H735.93L859.21,257.52A44.08,44.08,0,0,0,858.84,213.36Z"/><polygon class="cls-28" points="572.54 467.27 570.33 470.95 654.97 470.95 657.18 467.27 572.54 467.27"/><path class="cls-1" d="M858.84,213.36,735.56-.08H570.7L706.86,235.44,570.7,471H735.93L859.21,257.52A44.08,44.08,0,0,0,858.84,213.36Z"/><polygon class="cls-29" points="570.33 470.95 572.54 470.95 707.59 237.28 706.86 235.44 570.33 470.95"/><path class="cls-1" d="M858.84,213.36,735.56-.08H570.7L706.86,235.44,570.7,471H735.93L859.21,257.52A44.08,44.08,0,0,0,858.84,213.36Z"/><polygon id="_Path_2" data-name="&lt;Path&gt;" class="cls-30" points="789.29 377.85 789.29 377.85 749.17 308.3 739.24 325.6 789.29 377.85"/><path class="cls-1" d="M858.84,213.36,735.56-.08H570.7L706.86,235.44,570.7,471H735.93L859.21,257.52A44.08,44.08,0,0,0,858.84,213.36Z"/><polygon id="_Path_3" data-name="&lt;Path&gt;" class="cls-31" points="739.24 325.6 749.17 308.3 706.86 235.44 686.62 270.4 739.24 325.6"/><path class="cls-1" d="M858.84,213.36,735.56-.08H570.7L706.86,235.44,570.7,471H735.93L859.21,257.52A44.08,44.08,0,0,0,858.84,213.36Z"/><g id="_Group_3" data-name="&lt;Group&gt;"><g id="_Group_4" data-name="&lt;Group&gt;"><polygon id="_Path_4" data-name="&lt;Path&gt;" class="cls-32" points="654.97 -0.08 570.33 -0.08 789.29 377.85 831.61 304.99 831.61 304.62 654.97 -0.08"/></g></g><path class="cls-1" d="M858.84,213.36,735.56-.08H570.7L706.86,235.44,570.7,471H735.93L859.21,257.52A44.08,44.08,0,0,0,858.84,213.36Z"/><path class="cls-33" d="M858.84,257.52a45,45,0,0,0,0-44.16L735.56-.08H655L831.24,305Z"/><path class="cls-1" d="M858.84,213.36,735.56-.08H570.7L706.86,235.44,570.7,471H735.93L859.21,257.52A44.08,44.08,0,0,0,858.84,213.36Z"/><polygon class="cls-34" points="831.61 304.62 830.5 303.15 789.29 374.17 572.54 -0.08 570.33 -0.08 789.29 377.85 831.61 304.99 831.61 304.62"/><path class="cls-1" d="M858.84,213.36,735.56-.08H570.7L706.86,235.44,570.7,471H735.93L859.21,257.52A44.08,44.08,0,0,0,858.84,213.36Z"/><path class="cls-29" d="M735.56,3.6,858.84,217a44.43,44.43,0,0,1,5.89,20.24,43,43,0,0,0-5.89-23.92L735.56-.08H570.7l2.21,3.68Z"/><path class="cls-1" d="M858.84,213.36,735.56-.08H570.7L706.86,235.44,570.7,471H735.93L859.21,257.52A44.08,44.08,0,0,0,858.84,213.36Z"/><path id="_Path_5" data-name="&lt;Path&gt;" class="cls-35" d="M831.61,304.62l27.23-47.47a42.87,42.87,0,0,0,5.88-23.92,44.26,44.26,0,0,1-5.88,20.24L830.5,302.78Z"/><path class="cls-1" d="M858.84,213.36,735.56-.08H570.7L706.86,235.44,570.7,471H735.93L859.21,257.52A44.08,44.08,0,0,0,858.84,213.36Z"/><path id="_Path_6" data-name="&lt;Path&gt;" class="cls-36" d="M858.84,213.36,735.56-.08H570.7L706.86,235.44,570.7,471H735.93L859.21,257.52A44.08,44.08,0,0,0,858.84,213.36Z"/></g></g><path class="cls-37" d="M15.71,669.49a30.25,30.25,0,0,1,0-52.73,31,31,0,0,1,15.35-3.92,31.51,31.51,0,0,1,12.43,2.38A27.85,27.85,0,0,1,53.17,622l-7.53,7.37a19.8,19.8,0,0,0-6.44-4.62A20.5,20.5,0,0,0,31,623.2a20,20,0,0,0-9.8,2.47,18.33,18.33,0,0,0-7.09,7.05,20.54,20.54,0,0,0-2.63,10.41,20.27,20.27,0,0,0,2.67,10.41,18.43,18.43,0,0,0,7.17,7,20.08,20.08,0,0,0,9.84,2.47q8.1,0,13.29-4.77a13.93,13.93,0,0,0,2.83-3.73A18.62,18.62,0,0,0,49,649.61H30.82v-9.32H59.25a21.1,21.1,0,0,1,.56,5.11,32,32,0,0,1-1.74,10.69,24,24,0,0,1-5.3,8.67,25.91,25.91,0,0,1-9.4,6.44,32.64,32.64,0,0,1-12.31,2.22A30.85,30.85,0,0,1,15.71,669.49Z"/><path class="cls-37" d="M70.26,614.13h19.6a32.66,32.66,0,0,1,15.8,3.65A25.53,25.53,0,0,1,116,628a33.35,33.35,0,0,1,0,30.3,25.53,25.53,0,0,1-10.37,10.2,32.66,32.66,0,0,1-15.8,3.65H70.26Zm19.12,47.63q9.39,0,14.34-5t4.94-13.65q0-8.67-4.94-13.65t-14.34-5H81.2v37.26Z"/><path class="cls-37" d="M142.39,669.49a30.25,30.25,0,0,1,0-52.73,31,31,0,0,1,15.35-3.92,31.51,31.51,0,0,1,12.43,2.38,27.85,27.85,0,0,1,9.68,6.77l-7.53,7.37a19.8,19.8,0,0,0-6.44-4.62,20.5,20.5,0,0,0-8.22-1.54,20,20,0,0,0-9.8,2.47,18.4,18.4,0,0,0-7.09,7.05,20.54,20.54,0,0,0-2.63,10.41,20.27,20.27,0,0,0,2.67,10.41,18.43,18.43,0,0,0,7.17,7,20.08,20.08,0,0,0,9.84,2.47q8.1,0,13.29-4.77a13.72,13.72,0,0,0,2.83-3.73,18.62,18.62,0,0,0,1.78-4.94H157.5v-9.32h28.43a21.08,21.08,0,0,1,.57,5.11,31.71,31.71,0,0,1-1.75,10.69,24,24,0,0,1-5.3,8.67,25.91,25.91,0,0,1-9.4,6.44,32.64,32.64,0,0,1-12.31,2.22A30.85,30.85,0,0,1,142.39,669.49Z"/><path class="cls-37" d="M227.88,669.45A28.76,28.76,0,0,1,217,658.52a31.82,31.82,0,0,1,0-30.78,28.78,28.78,0,0,1,10.93-10.94,30.63,30.63,0,0,1,15.39-4,28.56,28.56,0,0,1,11.95,2.43,28.1,28.1,0,0,1,9.52,7l-6.48,6.24a19.93,19.93,0,0,0-6.64-5.31,19.15,19.15,0,0,0-8.35-1.74,21.64,21.64,0,0,0-10.65,2.67,19.89,19.89,0,0,0-7.65,7.58,24.22,24.22,0,0,0,0,22.76,19.8,19.8,0,0,0,7.65,7.57,21.65,21.65,0,0,0,10.65,2.68q9.72,0,16.53-8.1l6.56,6.31a29.49,29.49,0,0,1-10.13,7.7,31.86,31.86,0,0,1-28.35-1.22Z"/><path class="cls-37" d="M274.22,614.13h8.91v58h-8.91Z"/><path class="cls-37" d="M301.35,670.55a20.21,20.21,0,0,1-7.69-7.9,24,24,0,0,1,0-22.36,20.18,20.18,0,0,1,7.69-7.89,21.78,21.78,0,0,1,11.18-2.88,21.54,21.54,0,0,1,11.18,2.92,20.49,20.49,0,0,1,7.69,7.93,23.86,23.86,0,0,1,0,22.28,20.21,20.21,0,0,1-7.69,7.9,23.21,23.21,0,0,1-22.36,0Zm17.5-7a12.23,12.23,0,0,0,4.65-4.78,14.8,14.8,0,0,0,1.75-7.33,14.57,14.57,0,0,0-1.75-7.29,12.32,12.32,0,0,0-4.65-4.74,12.86,12.86,0,0,0-12.64,0,12.35,12.35,0,0,0-4.66,4.74,14.56,14.56,0,0,0-1.74,7.29,14.8,14.8,0,0,0,1.74,7.33,12.25,12.25,0,0,0,4.66,4.78,12.86,12.86,0,0,0,12.64,0Z"/><path class="cls-37" d="M345.54,668.93q-3.93-4.5-3.93-12.52V630.82h8.91V655.2c0,3.35.79,5.86,2.39,7.53a8.27,8.27,0,0,0,6.28,2.51,9.63,9.63,0,0,0,5.58-1.66,10.83,10.83,0,0,0,3.73-4.41,13.81,13.81,0,0,0,1.3-5.92V630.82h8.91v41.31h-8.43v-5.35h-.48a12.71,12.71,0,0,1-5.27,4.78,16.08,16.08,0,0,1-7.53,1.86Q349.47,673.42,345.54,668.93Z"/><path class="cls-37" d="M396.2,670.59a20.15,20.15,0,0,1-7.17-7.82,25.59,25.59,0,0,1,0-22.6,20.12,20.12,0,0,1,7.17-7.81,18.72,18.72,0,0,1,10.13-2.84,15.89,15.89,0,0,1,7.85,1.94,14.3,14.3,0,0,1,5.27,4.78h.4l-.4-5.83V614.13h8.91v58h-8.51v-5.35h-.4a14.57,14.57,0,0,1-5.27,4.7,15.89,15.89,0,0,1-7.85,1.94A18.71,18.71,0,0,1,396.2,670.59Zm17.46-7.05a12.37,12.37,0,0,0,4.49-4.86,14.91,14.91,0,0,0,1.7-7.21,14.67,14.67,0,0,0-1.7-7.17,12.53,12.53,0,0,0-4.49-4.82,11.47,11.47,0,0,0-6-1.7,11.63,11.63,0,0,0-6.07,1.7A12.5,12.5,0,0,0,397,644.3a14.78,14.78,0,0,0-1.7,7.17,15,15,0,0,0,1.7,7.21,12.34,12.34,0,0,0,4.54,4.86,11.63,11.63,0,0,0,6.07,1.7A11.47,11.47,0,0,0,413.66,663.54Z"/><path class="cls-37" d="M459.14,614.13h9.07v27.54h.49l23.48-27.54h11.26v.49l-21.22,24.46,23.09,32.56v.49h-11.1l-18.14-26-7.86,9.07v16.93h-9.07Z"/><path class="cls-37" d="M513,668.93q-3.93-4.5-3.93-12.52V630.82h8.91V655.2q0,5,2.39,7.53a8.28,8.28,0,0,0,6.28,2.51,9.64,9.64,0,0,0,5.59-1.66,10.81,10.81,0,0,0,3.72-4.41,13.66,13.66,0,0,0,1.3-5.92V630.82h8.91v41.31h-8.42v-5.35h-.49a12.68,12.68,0,0,1-5.26,4.78,16.09,16.09,0,0,1-7.54,1.86Q516.89,673.42,513,668.93Z"/><path class="cls-37" d="M561.11,671.68a13,13,0,0,1-5.42-4.94,13.64,13.64,0,0,1-2-7.25,12.12,12.12,0,0,1,4.82-10.12q4.82-3.74,12.19-3.73a28.53,28.53,0,0,1,6.56.69,23.62,23.62,0,0,1,4.62,1.5v-2.11a7.73,7.73,0,0,0-2.83-6.2,10.94,10.94,0,0,0-7.29-2.39,13.3,13.3,0,0,0-6,1.38,11.68,11.68,0,0,0-4.49,3.81l-6.24-4.78a18.54,18.54,0,0,1,7.13-5.91,22,22,0,0,1,9.72-2.11q9,0,13.85,4.41t4.86,12.44v25.76h-8.75v-4.94h-.4a14,14,0,0,1-5,4.45,15.15,15.15,0,0,1-7.45,1.78A17.56,17.56,0,0,1,561.11,671.68Zm15.31-7.17a10.92,10.92,0,0,0,4.05-4.13,11.14,11.14,0,0,0,1.46-5.59,18,18,0,0,0-4.33-1.7,20.3,20.3,0,0,0-5.15-.65c-3.34,0-5.8.67-7.37,2a6.41,6.41,0,0,0-2.34,5.14,5.79,5.79,0,0,0,2.18,4.66,8.59,8.59,0,0,0,5.67,1.82A11.17,11.17,0,0,0,576.42,664.51Z"/><path class="cls-37" d="M600.4,614.13h8.91v58H600.4Z"/><path class="cls-37" d="M624.38,671.68a13,13,0,0,1-5.43-4.94,13.64,13.64,0,0,1-1.94-7.25,12.11,12.11,0,0,1,4.81-10.12q4.83-3.74,12.19-3.73a28.68,28.68,0,0,1,6.57.69,23.72,23.72,0,0,1,4.61,1.5v-2.11a7.73,7.73,0,0,0-2.83-6.2,10.94,10.94,0,0,0-7.29-2.39,13.3,13.3,0,0,0-6,1.38,11.68,11.68,0,0,0-4.49,3.81l-6.24-4.78a18.54,18.54,0,0,1,7.13-5.91,22.06,22.06,0,0,1,9.72-2.11q9,0,13.85,4.41t4.86,12.44v25.76h-8.75v-4.94h-.4a14.1,14.1,0,0,1-5,4.45,15.21,15.21,0,0,1-7.46,1.78A17.49,17.49,0,0,1,624.38,671.68Zm15.31-7.17a11,11,0,0,0,4-4.13,11.14,11.14,0,0,0,1.46-5.59,18,18,0,0,0-4.33-1.7,20.28,20.28,0,0,0-5.14-.65c-3.35,0-5.81.67-7.38,2a6.41,6.41,0,0,0-2.34,5.14,5.82,5.82,0,0,0,2.18,4.66,8.59,8.59,0,0,0,5.67,1.82A11.2,11.2,0,0,0,639.69,664.51Z"/><path class="cls-37" d="M684.07,614.13h9.07v49.33H718v8.67H684.07Z"/><path class="cls-37" d="M728.5,668.93q-3.93-4.5-3.93-12.52V630.82h8.91V655.2q0,5,2.39,7.53a8.28,8.28,0,0,0,6.28,2.51,9.66,9.66,0,0,0,5.59-1.66,10.81,10.81,0,0,0,3.72-4.41,13.66,13.66,0,0,0,1.3-5.92V630.82h8.91v41.31h-8.43v-5.35h-.48a12.65,12.65,0,0,1-5.27,4.78,16,16,0,0,1-7.53,1.86Q732.43,673.42,728.5,668.93Z"/><path class="cls-37" d="M772,630.82h8.5v5.42H781a14,14,0,0,1,5.26-4.86,15,15,0,0,1,7.29-1.86,14.42,14.42,0,0,1,7.78,2.07,11.81,11.81,0,0,1,4.77,5.46A15.78,15.78,0,0,1,820,629.52q7.13,0,10.81,4.33t3.69,11.79v26.49h-8.91v-25q0-9.4-8-9.4a8.58,8.58,0,0,0-7,3.49,13.37,13.37,0,0,0-2.75,8.58v22.28h-8.91v-25q0-9.4-8.27-9.4a8.4,8.4,0,0,0-6.92,3.49,13.52,13.52,0,0,0-2.71,8.58v22.28H772Z"/><path class="cls-37" d="M844.29,630.82h8.5v5.42h.41a14.19,14.19,0,0,1,5.26-4.78,15.9,15.9,0,0,1,7.86-1.94,18.71,18.71,0,0,1,10.12,2.84,20,20,0,0,1,7.17,7.81,25.5,25.5,0,0,1,0,22.6,20,20,0,0,1-7.17,7.82,18.7,18.7,0,0,1-10.12,2.83,15.9,15.9,0,0,1-7.86-1.94,14.45,14.45,0,0,1-5.26-4.7h-.41l.41,5.75v17.09h-8.91Zm26.81,32.72a12.24,12.24,0,0,0,4.53-4.86,14.91,14.91,0,0,0,1.7-7.21,14.67,14.67,0,0,0-1.7-7.17,12.4,12.4,0,0,0-4.53-4.82,11.66,11.66,0,0,0-6.08-1.7,11.41,11.41,0,0,0-6,1.7,12.55,12.55,0,0,0-4.5,4.82,14.78,14.78,0,0,0-1.7,7.17,15,15,0,0,0,1.7,7.21,12.39,12.39,0,0,0,4.5,4.86,11.41,11.41,0,0,0,6,1.7A11.66,11.66,0,0,0,871.1,663.54Z"/><path class="cls-37" d="M897.54,668.93q-3.93-4.5-3.92-12.52V630.82h8.91V655.2q0,5,2.38,7.53a8.3,8.3,0,0,0,6.28,2.51,9.64,9.64,0,0,0,5.59-1.66,10.91,10.91,0,0,0,3.73-4.41,13.8,13.8,0,0,0,1.29-5.92V630.82h8.91v41.31h-8.42v-5.35h-.49a12.68,12.68,0,0,1-5.26,4.78,16.08,16.08,0,0,1-7.53,1.86Q901.47,673.42,897.54,668.93Z"/><path class="cls-37" d="M941.08,630.82h8.51v6.07h.4a11.48,11.48,0,0,1,4.78-5.22A14.45,14.45,0,0,1,967,630.41v9.23a19.08,19.08,0,0,0-6.4-1.29,9.54,9.54,0,0,0-5.47,1.62,11.23,11.23,0,0,0-3.76,4.33,13,13,0,0,0-1.38,6v21.87h-8.91Z"/></svg>