<svg xmlns="http://www.w3.org/2000/svg" xmlns:xlink="http://www.w3.org/1999/xlink" viewBox="0 0 586.09 934.6"><defs><style>.cls-1{clip-path:url(#clip-path);}.cls-2{fill:none;}.cls-3{fill:url(#radial-gradient);}.cls-4{clip-path:url(#clip-path-2);}.cls-5{fill:url(#radial-gradient-2);}.cls-6{fill:#ffc107;}.cls-7{fill:#0f9d58;}.cls-8{opacity:0.2;isolation:isolate;}.cls-9{clip-path:url(#clip-path-3);}.cls-10{fill:#bf360c;}.cls-11{clip-path:url(#clip-path-4);}.cls-12{fill:#263238;}.cls-13{clip-path:url(#clip-path-5);}.cls-14{fill:#fff;}.cls-15{clip-path:url(#clip-path-6);}.cls-16{mask:url(#mask);}.cls-17{fill:url(#radial-gradient-3);}.cls-18{clip-path:url(#clip-path-7);}.cls-19{mask:url(#mask-2);}.cls-20{fill:url(#radial-gradient-4);}.cls-21{fill:#4285f4;}.cls-22{fill:#db4437;}.cls-23{clip-path:url(#clip-path-8);}.cls-24{fill:#1a237e;}</style><clipPath id="clip-path"><polygon class="cls-2" points="435.95 750.38 356.21 612.46 336.65 646.26 435.95 750.38"/></clipPath><radialGradient id="radial-gradient" cx="-602.36" cy="1185.23" r="7.94" gradientTransform="matrix(44.26, 0, 0, -44.26, 27097.15, 53209.79)" gradientUnits="userSpaceOnUse"><stop offset="0" stop-color="#333"/><stop offset="1" stop-color="#050505"/></radialGradient><clipPath id="clip-path-2"><polygon class="cls-2" points="336.65 646.26 356.21 612.46 272.25 467.3 232.16 536.66 336.65 646.26"/></clipPath><radialGradient id="radial-gradient-2" cx="-602.53" cy="1185.4" r="7.29" gradientTransform="matrix(44.62, 0, 0, -44.62, 27320.51, 53645.18)" xlink:href="#radial-gradient"/><clipPath id="clip-path-3"><rect class="cls-2" x="169.88" y="746.73" width="266.07" height="187.86"/></clipPath><clipPath id="clip-path-4"><rect class="cls-2" x="1.94" y="927.3" width="172.17" height="7.3"/></clipPath><clipPath id="clip-path-5"><rect class="cls-2" x="1.94" y="467.3" width="272.42" height="467.3"/></clipPath><clipPath id="clip-path-6"><polygon class="cls-2" points="435.95 750.38 356.21 612.46 336.65 646.26 435.95 750.38"/></clipPath><mask id="mask" x="336.65" y="612.46" width="99.3" height="137.93" maskUnits="userSpaceOnUse"><g id="m"><g class="cls-1"><path class="cls-3" d="M336.65,612.46H436V750.38h-99.3Z"/></g></g></mask><radialGradient id="radial-gradient-3" cx="-602.36" cy="1185.22" r="7.3" gradientTransform="matrix(44.26, 0, 0, -44.26, 27097.12, 53209.76)" gradientUnits="userSpaceOnUse"><stop offset="0" stop-color="#bf360c"/><stop offset="1" stop-color="#bf360c"/></radialGradient><clipPath id="clip-path-7"><polygon class="cls-2" points="336.65 646.26 356.21 612.46 272.25 467.3 232.16 536.66 336.65 646.26"/></clipPath><mask id="mask-2" x="232.16" y="467.3" width="124.05" height="178.97" maskUnits="userSpaceOnUse"><g id="s"><g class="cls-4"><path class="cls-5" d="M232.16,467.31h124v179h-124Z"/></g></g></mask><radialGradient id="radial-gradient-4" cx="-602.53" cy="1185.39" r="7.3" gradientTransform="matrix(44.62, 0, 0, -44.62, 27320.47, 53645.15)" gradientUnits="userSpaceOnUse"><stop offset="0" stop-color="#263238"/><stop offset="1" stop-color="#263238"/></radialGradient><clipPath id="clip-path-8"><rect class="cls-2" x="1.94" width="517.97" height="750.38"/></clipPath></defs><title>gdg</title><path class="cls-6" d="M433.83,746.73,356.21,612.46,169.88,934.6H329.42L436,750.38Z"/><path class="cls-7" d="M272.25,467.3l84,145.16L169.88,934.6H1.94Z"/><g class="cls-8"><g class="cls-9"><path class="cls-10" d="M329.42,927.3H174.11l-4.23,7.3H329.42L436,750.38l-2.12-3.65Z"/></g></g><g class="cls-8"><g class="cls-11"><path class="cls-12" d="M6.18,927.3l-4.24,7.3H169.88l4.23-7.3Z"/></g></g><g class="cls-8"><g class="cls-13"><path class="cls-14" d="M1.94,934.6H6.18L274.36,471l-2.11-3.65Z"/></g></g><g class="cls-15"><g class="cls-16"><path class="cls-17" d="M336.65,612.46H436V750.38h-99.3Z"/></g></g><g class="cls-18"><g class="cls-19"><path class="cls-20" d="M232.16,467.3h124v179h-124Z"/></g></g><path class="cls-21" d="M169.88,0H1.94L436,750.38,519.84,605.3l.07-.15Z"/><path class="cls-22" d="M574.31,511.11a87.39,87.39,0,0,0,0-87.62L329.42,0H169.88l350,605.15Z"/><g class="cls-8"><g class="cls-23"><path class="cls-24" d="M519.91,605.15l-2.11-3.57L436,743.08,6.18,0H1.94L436,750.38,519.84,605.3Z"/></g></g></svg>